<?xml version="1.0" encoding="utf-8"?>
<!-- Generator: Adobe Illustrator 27.4.1, SVG Export Plug-In . SVG Version: 6.00 Build 0)  -->
<svg version="1.1" id="Laag_2_00000101804757237721929200000010665610292068669336_"
	 xmlns="http://www.w3.org/2000/svg" xmlns:xlink="http://www.w3.org/1999/xlink" x="0px" y="0px" viewBox="0 0 76.1 44.8"
	 style="enable-background:new 0 0 76.1 44.8;" xml:space="preserve">
<style type="text/css">
	.st0{fill:#D5A940;}
</style>
<g id="Laag_1-2">
	<path class="st0" d="M22.7,20.3c-0.3-0.2-0.5-0.4-0.7-0.6c-0.2-0.2-0.4-0.4-0.5-0.6c-0.3-0.5-0.4-1,0-1.5c0.5-0.7,1.2-1.2,2-1.5
		c0.1-0.1,0.3,0,0.4,0c0.6,0.3,1.2,0.7,1.6,1.2c0.6,0.7,0.6,1.4,0,2.1c-0.3,0.3-0.7,0.6-1.1,1c0.5,1.3,1.1,2.6,2.2,3.7
		c1.5-1.2,2.4-2.8,3-4.6c-0.2-0.1-0.3-0.2-0.4-0.3c-0.4-0.3-0.8-0.6-1.1-1c-0.4-0.5-0.4-1.1,0-1.6c0.5-0.7,1.1-1.1,1.9-1.4
		c0.1-0.1,0.3,0,0.4,0c0.6,0.3,1.2,0.7,1.6,1.2c0.6,0.7,0.6,1.4,0,2.1c-0.3,0.4-0.8,0.7-1.2,1c0.4,1.2,1,2.4,1.9,3.5
		c0.1-0.2,0.2-0.3,0.3-0.5c0.7-1.1,1.2-2.3,1.7-3.5c0.7-1.9,1.2-3.8,1.8-5.7c0-0.1,0-0.1,0-0.2c-0.2-0.2-0.4-0.3-0.6-0.5
		c-0.4-0.4-0.9-0.7-1.2-1.2c-0.6-0.8-0.9-1.6-0.7-2.6c0.3-1.6,1.7-2.4,3.2-1.8c0.4,0.1,0.7,0.4,1.1,0.6c0.1,0,0.2-0.1,0.3-0.2
		c0.3-0.2,0.6-0.4,1-0.5c1.5-0.4,2.9,0.6,3,2.2c0,1-0.3,1.8-0.9,2.5c-0.4,0.4-0.8,0.8-1.3,1.1c-0.1,0.1-0.3,0.2-0.5,0.3
		c0.8,2.9,1.6,5.8,3,8.6c0.5-0.8,0.8-1.5,1-2.2c-0.2-0.1-0.3-0.2-0.4-0.3c-0.3-0.3-0.7-0.6-1-0.9c-0.4-0.5-0.4-1.1,0-1.6
		c0.5-0.7,1.2-1.1,1.9-1.5c0.1-0.1,0.3,0,0.4,0c0.6,0.3,1.2,0.7,1.6,1.2c0.6,0.7,0.6,1.4,0,2.1c-0.4,0.4-0.8,0.7-1.3,1.1
		c0.8,2.1,1.9,3.9,3.9,5.1c1-0.3,2.5-2.6,2.9-4.3c-0.3-0.2-0.5-0.4-0.8-0.7c-0.8-0.8-0.8-1.6,0-2.4c0.4-0.4,0.9-0.7,1.4-1
		c0.1-0.1,0.4-0.1,0.5,0c0.6,0.3,1.2,0.6,1.6,1.2c0.6,0.7,0.6,1.4,0,2.1c-0.3,0.3-0.7,0.6-1.1,0.9c0.6,1.6,1.4,3.2,2.9,4.2
		c0.5,0.3,1,0.5,1.5,0.7c0.6,0.1,0.7,0.2,0.7,0.9c0,1.1,0,2.2,0,3.4c0,2.1,0,4.1,0,6.2c0,0.1,0,0.3,0,0.4c0,0.6-0.2,0.8-0.7,0.9
		c-0.9,0.2-1.9,0.4-2.8,0.5c-4.3,0.4-8.7,0.6-13.1,0.6c-4,0-7.9,0-11.9-0.1c-2.7-0.1-5.4-0.2-8.1-0.4c-1.1-0.1-2.2-0.3-3.2-0.4
		c-0.3,0-0.5-0.1-0.8-0.2c-0.4-0.1-0.4-0.2-0.4-0.7c0-0.2,0-0.4,0-0.5c0-3.1,0-6.3,0-9.4c0-0.2,0-0.3,0-0.5c0-0.3,0.2-0.5,0.5-0.6
		c1.5-0.3,2.5-1.2,3.4-2.4C22,22.1,22.4,21.2,22.7,20.3L22.7,20.3z M42.4,17.4c0.1,0.2,0.2,0.4,0.3,0.6c0.4,0.5,0.9,0.9,1.5,1.2
		c0.1,0,0.3,0,0.4,0c0.5-0.3,0.9-0.6,1.3-1c0.5-0.5,0.5-1,0-1.5c-0.4-0.4-0.9-0.7-1.4-1c-0.1-0.1-0.2-0.1-0.3,0
		c-0.6,0.3-1.1,0.6-1.5,1.2C42.6,16.9,42.5,17.2,42.4,17.4L42.4,17.4z M28.1,17.3c0.1,0.2,0.2,0.5,0.3,0.7c0.4,0.5,0.9,0.8,1.4,1.1
		c0.1,0,0.3,0,0.4,0c0.5-0.3,1-0.6,1.4-1.1c0.4-0.5,0.4-1,0-1.4c-0.4-0.4-0.9-0.7-1.3-1c-0.1-0.1-0.3-0.1-0.4,0
		c-0.5,0.3-0.9,0.6-1.4,1C28.3,16.8,28.2,17.1,28.1,17.3L28.1,17.3z M44.5,19.8C44.5,19.8,44.5,19.9,44.5,19.8c0,1.4,0,2.8,0,4.1
		c0,0.1,0.1,0.3,0.2,0.4c0.4,0.3,0.8,0.6,1.3,0.8c0.8,0.3,1.6,0.2,2.4-0.3c-1-0.6-1.8-1.3-2.3-2.2C45.6,21.7,45.1,20.8,44.5,19.8z
		 M26.9,24.3c1,0.9,2.2,1.2,3,0.8V20C29.2,21.6,28.3,23.1,26.9,24.3z M30.2,25.1c0.9-0.4,1.6-1,2.2-1.8c-0.9-1.1-1.5-2.3-2.1-3.7
		C30.1,20.1,30.1,24.3,30.2,25.1z M31.2,30.3c0-0.1-0.1-0.3-0.1-0.4c-0.3-0.5-0.7-0.8-1.2-1c-0.1,0-0.2,0-0.2,0
		c-0.4,0.2-0.7,0.5-1,0.8c-0.3,0.3-0.3,0.7,0,1c0.3,0.3,0.7,0.5,1,0.8c0.1,0,0.2,0,0.3,0c0.4-0.2,0.8-0.5,1.1-0.9
		C31.1,30.6,31.1,30.5,31.2,30.3z M48,30.3c0-0.1-0.1-0.3-0.1-0.4c-0.3-0.5-0.7-0.8-1.2-1c-0.1,0-0.2,0-0.2,0
		c-0.4,0.3-0.7,0.5-1,0.8c-0.3,0.3-0.3,0.7,0,1c0.3,0.3,0.7,0.5,1,0.8c0.1,0,0.2,0,0.3,0c0.4-0.3,0.7-0.5,1.1-0.8
		C47.9,30.7,47.9,30.5,48,30.3L48,30.3z M37.9,12c0-1.3,0-2.5,0-3.8c-0.7,0.3-1.2,0.7-1.7,1.3c-0.3,0.5-0.3,0.9,0,1.3
		C36.7,11.3,37.2,11.6,37.9,12L37.9,12z M38.2,8.2V12c0.7-0.4,1.2-0.7,1.6-1.3c0.3-0.4,0.3-0.9,0-1.3C39.4,8.9,38.9,8.5,38.2,8.2
		L38.2,8.2z M44.3,19.7c0,0-0.1,0-0.1,0C44.1,19.8,44,19.9,44,20c-0.2,0.4-0.3,0.8-0.5,1.1c-0.5,0.7-0.4,1.3,0.1,1.9
		c0.1,0.2,0.2,0.3,0.4,0.5c0.1,0.1,0.2,0.1,0.3,0.3V19.7L44.3,19.7z M58.1,33.1c0.1-0.3,0.2-1.9,0-2.5c-0.4,0.2-0.8,0.4-1,0.8
		c-0.3,0.4-0.3,0.6,0,1C57.4,32.7,57.7,32.9,58.1,33.1L58.1,33.1z M18,33.1c0.5-0.2,0.9-0.5,1.1-0.9c0.2-0.3,0.2-0.5,0-0.8
		c-0.3-0.4-0.6-0.7-1.1-0.9V33.1z"/>
</g>
</svg>
