<?xml version="1.0" encoding="utf-8"?>
<!-- Generator: Adobe Illustrator 27.5.0, SVG Export Plug-In . SVG Version: 6.00 Build 0)  -->
<svg version="1.1" id="Laag_1" xmlns="http://www.w3.org/2000/svg" xmlns:xlink="http://www.w3.org/1999/xlink" x="0px" y="0px"
	 viewBox="0 0 1292.6 858.9" style="enable-background:new 0 0 1292.6 858.9;" xml:space="preserve">
<style type="text/css">
	.st0{fill:none;stroke:#FF0000;stroke-width:0.2835;stroke-linecap:round;stroke-miterlimit:11.3386;}
</style>
<path id="front_outsideCutPath" vector-effect="non-scaling-stroke" class="st0" d="M0,433.7v63.8h11.3V540H0v42.5h11.3V625H0v42.5
	h11.3V710H0v42.5h11.3V795H0v42.5v21.3h63.8v-11.3h42.5v11.3h42.5v-11.3h42.5v11.3h42.5v-11.3h42.5v11.3h42.5v-11.3h42.5v11.3h42.5
	h21.3V795h-11.3v-42.5h11.3V710h-11.3v-42.5h11.3V625h-11.3v-42.5h11.3V540h-11.3v-42.5h11.3V455v-21.3h-63.8V445h-42.5v-11.3h-42.5
	V445h-42.5v-11.3h-42.5V445h-42.5v-11.3h-42.5V445H63.8v-11.3H21.3H0z"/>
<path id="left_outsideCutPath" vector-effect="non-scaling-stroke" class="st0" d="M445,433.7v63.8h-11.3V540H445v42.5h-11.3V625
	H445v42.5h-11.3V710H445v42.5h-11.3V795H445v42.5v21.3h52.4v-11.3H540v11.3h42.5v-11.3H625v11.3h42.5v-11.3H710v11.3h42.5v-11.3H795
	v11.3h42.5h9.9V795h11.3v-42.5h-11.3V710h11.3v-42.5h-11.3V625h11.3v-42.5h-11.3V540h11.3v-42.5h-11.3V455v-21.3H795V445h-42.5
	v-11.3H710V445h-42.5v-11.3H625V445h-42.5v-11.3H540V445h-42.5v-11.3H455H445z"/>
<path id="top_outsideCutPath" vector-effect="non-scaling-stroke" class="st0" d="M878.7,445v52.4h-11.3V540h11.3v42.5h-11.3V625
	h11.3v42.5h-11.3V710h11.3v42.5h-11.3V795h11.3v42.5v9.9h52.4v11.3h42.5v-11.3h42.5v11.3h42.5v-11.3h42.5v11.3h42.5v-11.3h42.5v11.3
	h42.5v-11.3h42.5h9.9V795h11.3v-42.5H1281V710h11.3v-42.5H1281V625h11.3v-42.5H1281V540h11.3v-42.5H1281V455v-10h-52.4v-11.3h-42.5
	V445h-42.5v-11.3h-42.5V445h-42.5v-11.3h-42.5V445h-42.5v-11.3h-42.5V445h-42.5H878.7z"/>
<path id="back_outsideCutPath" vector-effect="non-scaling-stroke" class="st0" d="M0,0v63.8h11.3v42.5H0v42.5h11.3v42.5H0v42.5
	h11.3v42.5H0v42.5h11.3v42.5H0v42.5v21.3h63.8v-11.3h42.5v11.3h42.5v-11.3h42.5v11.3h42.5v-11.3h42.5v11.3h42.5v-11.3h42.5v11.3
	h42.5h21.3v-63.8h-11.3v-42.5h11.3v-42.5h-11.3v-42.5h11.3v-42.5h-11.3v-42.5h11.3v-42.5h-11.3V63.8h11.3V21.3V0h-63.8v11.3h-42.5V0
	h-42.5v11.3h-42.5V0h-42.5v11.3h-42.5V0h-42.5v11.3H63.8V0H21.3H0z"/>
<path id="right_outsideCutPath" vector-effect="non-scaling-stroke" class="st0" d="M445,0v63.8h-11.3v42.5H445v42.5h-11.3v42.5H445
	v42.5h-11.3v42.5H445v42.5h-11.3v42.5H445v42.5v21.3h52.4v-11.3H540v11.3h42.5v-11.3H625v11.3h42.5v-11.3H710v11.3h42.5v-11.3H795
	v11.3h42.5h9.9v-63.8h11.3v-42.5h-11.3v-42.5h11.3v-42.5h-11.3v-42.5h11.3v-42.5h-11.3v-42.5h11.3V63.8h-11.3V21.3V0H795v11.3h-42.5
	V0H710v11.3h-42.5V0H625v11.3h-42.5V0H540v11.3h-42.5V0H455H445z"/>
<path id="bottom_outsideCutPath" vector-effect="non-scaling-stroke" class="st0" d="M878.7,11.3v52.4h-11.3v42.5h11.3v42.5h-11.3
	v42.5h11.3v42.5h-11.3v42.5h11.3v42.5h-11.3v42.5h11.3v42.5v9.9h52.4v11.3h42.5v-11.3h42.5v11.3h42.5v-11.3h42.5v11.3h42.5v-11.3
	h42.5v11.3h42.5v-11.3h42.5h9.9v-52.4h11.3v-42.5H1281v-42.5h11.3v-42.5H1281v-42.5h11.3v-42.5H1281v-42.5h11.3V63.8H1281V21.3v-9.9
	h-52.4V0h-42.5v11.3h-42.5V0h-42.5v11.3h-42.5V0h-42.5v11.3h-42.5V0h-42.5v11.3h-42.5H878.7z"/>
<circle class="st0" cx="1080" cy="646.3" r="35.4"/>
<rect x="35.4" y="312.9" class="st0" width="354.3" height="56.7"/>
</svg>
